<svg width="60" height="60" fill="none" xmlns="http://www.w3.org/2000/svg"><path d="M11.613 5.807a5.803 5.803 0 00-5.807 5.806 5.803 5.803 0 005.807 5.806 5.803 5.803 0 005.806-5.806 5.803 5.803 0 00-5.806-5.806zm0 9.677a3.882 3.882 0 01-3.871-3.87 3.882 3.882 0 013.87-3.872 3.882 3.882 0 013.872 3.871 3.882 3.882 0 01-3.871 3.871zm19.355-4.838h-1.936v1.935h1.936v-1.935zm7.742 0h-5.807v1.935h5.807v-1.935zm0 3.87h-9.678v1.935h9.678v-1.935zM11.613 46.451H3.87v5.807h7.742V46.45zm-1.936 3.871h-3.87v-1.935h3.87v1.935zm9.678-3.871h-5.806v1.936h5.806V46.45zm0 3.871h-5.806v1.936h5.806v-1.936zm0 3.871H3.87v1.936h15.484v-1.936z" fill="#00093C"/><path d="M57.097 32.903H41.613a2.912 2.912 0 00-2.903 2.903v6.775h-3.871v-8.855C36.5 33.29 37.742 31.79 37.742 30a3.857 3.857 0 00-2.903-3.726v-5.951h4.838a2.912 2.912 0 002.904-2.904v-4.838h3.951c.468 2.742 2.855 4.838 5.726 4.838a5.803 5.803 0 005.097-8.58l2.355-2.355-1.371-1.371-2.194 2.193a5.796 5.796 0 00-3.887-1.516c-2.87 0-5.258 2.097-5.726 4.839h-3.951V5.79a2.912 2.912 0 00-2.904-2.903H28.064a2.912 2.912 0 00-2.903 2.903v4.839h-1.935v-1.71l-2.549-.693c-.08-.226-.177-.436-.274-.661l1.307-2.29L17.936 1.5l-2.29 1.306c-.227-.096-.436-.193-.662-.274L14.29 0H8.935l-.693 2.548c-.226.081-.436.178-.661.275L5.29 1.516 1.515 5.29l1.307 2.29c-.097.226-.194.436-.275.662L0 8.935v5.355l2.548.694c.081.226.178.435.275.661l-1.307 2.29L5.29 21.71l2.29-1.307c.226.097.436.194.662.274l.693 2.533h1.71v15.483H2.903A2.912 2.912 0 000 41.597V57.08a2.912 2.912 0 002.903 2.903h17.42a2.912 2.912 0 002.903-2.903V41.597a2.912 2.912 0 00-2.903-2.904H12.58V23.21h1.71l.693-2.549c.226-.08.435-.177.661-.274l2.29 1.306 3.79-3.774-1.306-2.29c.097-.226.194-.435.274-.661l2.533-.694v-1.71h1.935v4.84a2.912 2.912 0 002.903 2.902h4.84v5.952C31.241 26.694 30 28.194 30 29.984a3.843 3.843 0 002.903 3.726V44.5h5.807v6.774a2.912 2.912 0 002.903 2.903h15.484A2.912 2.912 0 0060 51.274V35.79a2.898 2.898 0 00-2.903-2.887zM52.258 7.742c.968 0 1.839.37 2.516.952l-2.516 2.516L51 9.952l-1.371 1.37 2.613 2.614 3.629-3.63c.145.404.242.84.242 1.29a3.882 3.882 0 01-3.871 3.872 3.882 3.882 0 01-3.871-3.871c0-2.13 1.758-3.855 3.887-3.855zM20.323 58.064H2.903a.97.97 0 01-.968-.967v-12.58H21.29v12.58a.97.97 0 01-.967.968zm.967-16.451v.968H1.935v-.968a.97.97 0 01.968-.968h17.42a.97.97 0 01.967.968zm0-28.807l-2.129.581-.161.5a8.49 8.49 0 01-.548 1.323l-.242.467 1.096 1.92-1.693 1.71-1.92-1.097-.467.242a7.72 7.72 0 01-1.323.548l-.5.161-.58 2.113h-2.388l-.58-2.129-.5-.161a8.49 8.49 0 01-1.323-.549l-.467-.241-1.92 1.096-1.693-1.693 1.096-1.92-.242-.467a7.658 7.658 0 01-.548-1.323l-.161-.5-2.113-.58v-2.388l2.129-.58.161-.5c.145-.452.323-.887.549-1.323l.242-.468L3.968 5.63 5.66 3.935l1.92 1.097.467-.242a7.72 7.72 0 011.323-.548l.5-.161.58-2.13h2.388l.58 2.13.5.16c.452.146.887.324 1.323.55l.468.241 1.919-1.097 1.694 1.694-1.097 1.92.242.467c.226.436.42.887.548 1.323l.161.5 2.13.58-.017 2.387zm6.774-7.967h11.613a.97.97 0 01.968.967v.968H27.097v-.968a.97.97 0 01.967-.967zm-.967 12.58V8.71h13.548v8.71a.97.97 0 01-.968.968H28.064a.97.97 0 01-.967-.968zM31.935 30c0-1.064.871-1.936 1.936-1.936 1.064 0 1.935.872 1.935 1.936s-.87 1.936-1.935 1.936A1.941 1.941 0 0131.935 30zm9.678 4.839h15.484a.97.97 0 01.968.967v.968h-17.42v-.968a.97.97 0 01.968-.967zm15.484 17.42H41.613a.97.97 0 01-.968-.969V38.71h17.42v12.58a.97.97 0 01-.968.968z" fill="#00093C"/><path d="M48.387 40.645h-5.806v5.807h5.806v-5.806zm-1.935 3.871h-1.936v-1.935h1.936v1.935zm9.677-3.871h-5.806v1.936h5.806v-1.936zm0 3.871h-5.806v1.935h5.806v-1.935zm0 3.871H42.581v1.935h13.548v-1.935z" fill="#00093C"/></svg>