<svg xmlns="http://www.w3.org/2000/svg" width="960" height="560"><path fill="#FFF" d="M755.095 531.441L619.007 395.352c36.506-41.969 58.607-96.727 58.607-156.576C677.614 107.033 570.457 0 438.839 0 307.095 0 200.062 107.157 200.062 238.776c0 131.619 107.157 238.776 238.776 238.776 59.849 0 114.607-22.103 156.576-58.607l136.089 136.089c3.229 3.228 7.574 4.967 11.796 4.967s8.567-1.614 11.796-4.967c6.457-6.458 6.457-17.136 0-23.593zM233.464 238.776c0-113.241 92.133-205.25 205.251-205.25 113.241 0 205.25 92.133 205.25 205.25 0 113.118-92.009 205.375-205.25 205.375-113.119 0-205.251-92.133-205.251-205.375z"/></svg>